# xmcd
#
# Track frame offsets:
#	150
#	15065
#	26997
#	39180
#	51115
#	65837
#	80265
#	94355
#	107132
#	120257
#	132932
#	145690
#	159225
#	170777
#	182582
#	195935
#	209740
#	221962
#	234535
#	246877
#	259357
#	273365
#	285002
#	295947
#
# Disc length: 4136 seconds
# Revision: 0
# Processed by: cddbd v1.5.2PL0 Copyright (c) Steve Scherf et al.
# Submitted via: dBpowerAMP V12.0
#
DISCID=5a102618
DTITLE=Saunders King - Classics: 1948-1954
DYEAR=2008
DGENRE=Blues
TTITLE0=September Song (1948-49)
TTITLE1=Nobody Wants Me (1948-49)
TTITLE2=When Your Lover Has Gone (1948-49)
TTITLE3=Big Fat Butterfly (1948-49)
TTITLE4=Imagination (02-?-49)
TTITLE5=Empty Bedroom Blues (02-?-49)
TTITLE6=St James Infirmary Blues (04-04-49)
TTITLE7=Little Girl (04-04-49)
TTITLE8=Misery Blues (04-04-49)
TTITLE9=Something's Worrying Me (06-01-49)
TTITLE10=When I Got Home This Morning (I'm So Worried) [06-01-49]
TTITLE11=Auf Wiedersehn, My Dear (06-01-49)
TTITLE12=2: 00 Am Hop (06-01-49)
TTITLE13=Blues About Midnight (09-28-49)
TTITLE14=Unfaithful Blues (09-28-49)
TTITLE15=Stormy Night Blues (09-28-49)
TTITLE16=Danny Boy (02-02-50)
TTITLE17=Read the Good Book (02-02-50)
TTITLE18=Get Yourself Another Fool (02-02-50)
TTITLE19=Summertime (02-02-50)
TTITLE20=My Close Friend (02-?-54)
TTITLE21=Goin' mad (02-?-54)
TTITLE22=Quit Hangin' around Me (02-?-54)
TTITLE23=Long Long Time (02-?-54)
EXTD=
EXTT0=
EXTT1=
EXTT2=
EXTT3=
EXTT4=
EXTT5=
EXTT6=
EXTT7=
EXTT8=
EXTT9=
EXTT10=
EXTT11=
EXTT12=
EXTT13=
EXTT14=
EXTT15=
EXTT16=
EXTT17=
EXTT18=
EXTT19=
EXTT20=
EXTT21=
EXTT22=
EXTT23=
PLAYORDER=
